<svg xmlns="http://www.w3.org/2000/svg" width="500" height="500" style="width:100%;height:100%;transform:translate3d(0,0,0);content-visibility:visible" viewBox="0 0 500 500"><defs><clipPath id="a"><path d="M0 0h500v500H0z"/></clipPath><clipPath id="c"><path d="M0 0h500v500H0z"/></clipPath><clipPath id="b"><path d="M0 0h500v500H0z"/></clipPath></defs><g clip-path="url(#a)"><g clip-path="url(#b)" style="display:block"><g class="primary design" style="display:none"><path fill="#121330" d="M431.158 302.22c-10.269-5.144-22.83-.978-27.953 9.312-25.871 51.762-75.697 86.153-132.375 93.152V291.66h41.66c11.519 0 20.83-9.332 20.83-20.83S324.009 250 312.49 250h-41.66v-34.432c32.911-9.186 57.282-39.119 57.282-74.925 0-43.077-35.056-78.113-78.112-78.113s-78.112 35.036-78.112 78.113c0 35.806 24.37 65.739 57.282 74.925V250h-41.66c-11.519 0-20.83 9.332-20.83 20.83s9.311 20.83 20.83 20.83h41.66v113.315c-56.074-6.978-106.545-41.826-132.437-93.09-5.187-10.268-17.726-14.434-27.975-9.206-10.248 5.187-14.393 17.706-9.207 27.975C95.733 402.288 170.263 447.947 250.5 447.947c1.52 0 3.083 0 4.603-.041 79.05-2 150.08-47.138 185.367-117.752 5.145-10.29.979-22.788-9.312-27.933m-217.61-161.577c0-20.101 16.351-36.453 36.452-36.453s36.452 16.352 36.452 36.453c0 20.1-16.351 36.452-36.452 36.452s-36.452-16.352-36.452-36.452" class="primary"/></g><g class="primary design" style="display:block"><path fill="#121330" d="M431.158 302.22c-10.269-5.144-22.83-.978-27.953 9.312-25.871 51.762-75.697 86.153-132.375 93.152V291.66h41.66c11.519 0 20.83-9.332 20.83-20.83S324.009 250 312.49 250h-41.66v-34.432c32.911-9.186 57.282-39.119 57.282-74.925 0-43.077-35.056-78.113-78.112-78.113s-78.112 35.036-78.112 78.113c0 35.806 24.37 65.739 57.282 74.925V250h-41.66c-11.519 0-20.83 9.332-20.83 20.83s9.311 20.83 20.83 20.83h41.66v113.315c-56.074-6.978-106.545-41.826-132.437-93.09-5.187-10.268-17.726-14.434-27.975-9.206-10.248 5.187-14.393 17.706-9.207 27.975C95.733 402.288 170.263 447.947 250.5 447.947c1.52 0 3.083 0 4.603-.041 79.05-2 150.08-47.138 185.367-117.752 5.145-10.29.979-22.788-9.312-27.933m-217.61-161.577c0-20.101 16.351-36.453 36.452-36.453s36.452 16.352 36.452 36.453c0 20.1-16.351 36.452-36.452 36.452s-36.452-16.352-36.452-36.452" class="primary"/></g><g class="primary design" style="display:none"><path fill="none" class="primary"/></g><g fill="none" class="primary design" style="display:none"><path class="primary"/><path class="primary"/></g><g class="primary design" style="display:none"><path class="primary"/></g></g><g clip-path="url(#c)" style="display:none"><g class="primary design" style="display:none"><path fill="none" class="primary"/></g><g fill="none" class="primary design" style="display:none"><path class="primary"/><path class="primary"/></g><g class="primary design" style="display:none"><path class="primary"/></g></g></g></svg>